<svg width="56" height="56" xmlns="http://www.w3.org/2000/svg"><g fill="none" fill-rule="evenodd"><circle fill="#111827" cx="28" cy="28" r="28"/><path d="M23.64 22c3.116 0 5.641 2.686 5.641 6s-2.525 6-5.64 6C20.526 34 18 31.314 18 28c0-3.313 2.525-6 5.64-6Zm9.008.351c1.558 0 2.82 2.53 2.82 5.65h.001c0 3.118-1.263 5.648-2.82 5.648-1.558 0-2.82-2.53-2.82-5.649s1.262-5.649 2.82-5.649Zm4.36.589c.548 0 .992 2.265.992 5.06 0 2.794-.444 5.06-.992 5.06s-.992-2.265-.992-5.06c0-2.794.444-5.06.992-5.06Z" fill="#FFF" fill-rule="nonzero"/></g></svg>