<svg width="56" height="56" xmlns="http://www.w3.org/2000/svg"><g fill="none" fill-rule="evenodd"><circle fill="#1D9BF0" cx="28" cy="28" r="28"/><path d="M38 22.73c-.675.347-1.35.462-2.138.578.788-.462 1.35-1.154 1.575-2.077-.674.461-1.462.692-2.362.923-.675-.692-1.688-1.154-2.7-1.154-1.913 0-3.6 1.73-3.6 3.808 0 .346 0 .577.113.807a10.266 10.266 0 0 1-7.65-3.923c-.338.577-.45 1.154-.45 1.962 0 1.27.674 2.423 1.687 3.115-.563 0-1.125-.23-1.688-.461 0 1.846 1.238 3.346 2.925 3.692-.337.115-.674.115-1.012.115-.225 0-.45 0-.675-.115.45 1.5 1.8 2.654 3.488 2.654-1.238 1.038-2.813 1.615-4.613 1.615H20C21.688 35.308 23.6 36 25.625 36c6.75 0 10.462-5.77 10.462-10.73v-.462c.788-.577 1.463-1.27 1.913-2.077Z" fill="#FFF" fill-rule="nonzero"/></g></svg>