<svg width="56" height="56" xmlns="http://www.w3.org/2000/svg"><g fill="none" fill-rule="evenodd"><circle stroke="#E5E7EB" fill="#FFF" cx="28" cy="28" r="27.5"/><g fill-rule="nonzero"><path d="M24.808 39c2.102 0 3.807-1.643 3.807-3.667v-3.666h-3.807c-2.102 0-3.808 1.642-3.808 3.666S22.706 39 24.808 39Z" fill="#0ACF83"/><path d="M21 28c0-2.024 1.706-3.667 3.808-3.667h3.807v7.334h-3.807C22.706 31.667 21 30.024 21 28Z" fill="#A259FF"/><path d="M21 20.667C21 18.643 22.706 17 24.808 17h3.807v7.333h-3.807c-2.102 0-3.808-1.642-3.808-3.666Z" fill="#F24E1E"/><path d="M28.615 17h3.808c2.102 0 3.808 1.643 3.808 3.667s-1.706 3.666-3.808 3.666h-3.808V17Z" fill="#FF7262"/><path d="M36.23 28c0 2.024-1.705 3.667-3.807 3.667S28.615 30.024 28.615 28s1.706-3.667 3.808-3.667 3.808 1.643 3.808 3.667Z" fill="#1ABCFE"/></g></g></svg>