<svg width="56" height="56" xmlns="http://www.w3.org/2000/svg"><g fill="none" fill-rule="evenodd"><circle fill="#00C805" cx="28" cy="28" r="28"/><g fill="#FFF" fill-rule="nonzero"><path d="m27.137 34.872-.15.051c-.975.324-2.416.822-3.71 1.417-.07.032-.115.123-.115.123l-.088.201-.005.01c-.145.33-.345.826-.43 1.028l-.067.159a.066.066 0 0 0 .016.073.065.065 0 0 0 .044.019c.01 0 .02-.002.03-.007l.156-.075c.354-.168.802-.423 1.272-.646l.016-.008 2.51-1.191s.097-.053.146-.15l.455-.912a.068.068 0 0 0-.009-.073.069.069 0 0 0-.071-.019Zm-3.632-1.412c.063-.125.358-.692.425-.819l.012-.021a56.274 56.274 0 0 1 7.146-10.431l.076-.089a.09.09 0 0 0 .011-.099.09.09 0 0 0-.09-.045l-.116.016c-1.816.25-3.654.596-5.465 1.029a.726.726 0 0 0-.321.195 61.548 61.548 0 0 0-3.817 5.08c-.059.089-.065.3-.065.3s.297 2.28.729 3.959c-1.07 3.077-2.027 7.133-2.027 7.133a.09.09 0 0 0 .014.077.089.089 0 0 0 .07.036h.609a.09.09 0 0 0 .086-.058l.041-.114a56.611 56.611 0 0 1 2.115-5.002c.183-.38.567-1.147.567-1.147Z"/><path d="m31.982 22.854-.002-.116a.09.09 0 0 0-.057-.081.087.087 0 0 0-.097.024l-.076.088a55.327 55.327 0 0 0-8.063 12.31l-.05.105a.087.087 0 0 0 .078.126c.011 0 .024-.002.036-.007l.106-.044a52.6 52.6 0 0 1 5.504-1.933.419.419 0 0 0 .255-.21c.806-1.572 2.678-4.613 2.678-4.613.048-.068.036-.17.036-.17s-.328-3.638-.348-5.479Z"/><path d="M36.155 17.607c-.458-.397-1.123-.583-2.156-.606-.937-.02-2.05.182-3.312.598-.19.066-.34.17-.474.303a60.942 60.942 0 0 0-3.711 3.802l-.09.1a.09.09 0 0 0-.011.103c.019.033.057.05.095.042l.132-.028a57.176 57.176 0 0 1 5.704-.923.444.444 0 0 1 .345.112.443.443 0 0 1 .143.333 52.344 52.344 0 0 0 .203 5.581l.01.12c.004.037.03.068.067.077a.086.086 0 0 0 .02.003.09.09 0 0 0 .075-.037l.068-.099a52.703 52.703 0 0 1 3.43-4.376.708.708 0 0 0 .198-.393c.382-2.446-.208-4.254-.736-4.712Z"/></g></g></svg>