<svg width="56" height="56" xmlns="http://www.w3.org/2000/svg"><g fill="none" fill-rule="evenodd"><circle stroke="#E5E7EB" fill="#FFF" cx="28" cy="28" r="27.5"/><path d="M37.995 24.002c-.084 1.916-1.416 4.582-4.082 7.998-2.75 3.5-5 5.332-6.915 5.332-1.167 0-2.166-1.083-3-3.249-.5-2-1.083-3.916-1.582-5.915-.584-2.166-1.25-3.25-1.917-3.25-.166 0-.666.334-1.583.917L18 24.67c1-.833 2-1.75 2.916-2.583 1.333-1.166 2.333-1.75 3-1.833 1.582-.166 2.498.917 2.832 3.166.416 2.416.666 3.999.833 4.582.416 2 .916 3.083 1.5 3.083.416 0 1.083-.667 1.916-2s1.25-2.332 1.333-2.999c.083-1.166-.334-1.75-1.333-1.75-.5 0-1 .084-1.5.334 1-3.25 2.833-4.749 5.665-4.666 2 .084 2.916 1.417 2.833 4Z" fill="#00ADEF" fill-rule="nonzero"/></g></svg>