<svg width="56" height="56" xmlns="http://www.w3.org/2000/svg"><g fill="none" fill-rule="evenodd"><circle fill="#6366F1" cx="28" cy="28" r="28"/><path d="M22.486 25.549c1.488 1.495 3.467 2.342 5.523 2.496-.138-2.065-.997-4.053-2.486-5.548C24.035 21.002 22.117 20.154 20 20c.138 2.065.997 4.053 2.486 5.549Zm12.028 0c-1.488 1.495-3.467 2.342-5.523 2.496.138-2.065.997-4.053 2.486-5.548C32.888 21.002 34.883 20.154 37 20c-.153 2.065-.997 4.053-2.486 5.549Zm0 5.902c-1.488-1.495-3.467-2.342-5.523-2.496.138 2.065.997 4.053 2.486 5.548C32.965 35.998 34.944 36.846 37 37c-.153-2.127-.997-4.13-2.486-5.549Zm-12.028 0c1.488-1.495 3.467-2.342 5.6-2.496-.138 2.065-.998 4.053-2.486 5.548-1.565 1.495-3.483 2.358-5.6 2.497.138-2.127.997-4.13 2.486-5.549Z" fill="#F8FAFC" fill-rule="nonzero"/></g></svg>